<?xml version="1.0" encoding="UTF-8" standalone="no"?>
<svg
   xmlns:dc="http://purl.org/dc/elements/1.1/"
   xmlns:cc="http://creativecommons.org/ns#"
   xmlns:rdf="http://www.w3.org/1999/02/22-rdf-syntax-ns#"
   xmlns:svg="http://www.w3.org/2000/svg"
   xmlns="http://www.w3.org/2000/svg"
   viewBox="0 0 993.33331 165.33333"
   height="165.33333"
   width="993.33331"
   xml:space="preserve"
   id="svg2"
   version="1.1"><metadata
     id="metadata8"><rdf:RDF><cc:Work
         rdf:about=""><dc:format>image/svg+xml</dc:format><dc:type
           rdf:resource="http://purl.org/dc/dcmitype/StillImage" /></cc:Work></rdf:RDF></metadata><defs
     id="defs6"><clipPath
       id="clipPath14"
       clipPathUnits="userSpaceOnUse"><path
         id="path12"
         d="M 0,0 H 960 V 540 H 0 Z" /></clipPath><clipPath
       id="clipPath22"
       clipPathUnits="userSpaceOnUse"><path
         style="clip-rule:evenodd"
         id="path20"
         d="M 0,1.2207e-4 H 960 V 540.00012 H 0 Z" /></clipPath><clipPath
       id="clipPath32"
       clipPathUnits="userSpaceOnUse"><path
         style="clip-rule:evenodd"
         id="path30"
         d="M 1.4305e-5,0 H 960.00001 V 540 H 1.4305e-5 Z" /></clipPath><clipPath
       id="clipPath44"
       clipPathUnits="userSpaceOnUse"><path
         style="clip-rule:evenodd"
         id="path42"
         d="M 1.4305e-5,0 H 960.00001 V 540 H 1.4305e-5 Z" /></clipPath></defs><g
     clip-path="url(#clipPath14)"
     transform="matrix(1.3333333,0,0,-1.3333333,-124,586.66667)"
     id="g10"><g
       id="g16"><g
         clip-path="url(#clipPath22)"
         id="g18"><path
           id="path24"
           style="fill:#ffffff;fill-opacity:1;fill-rule:evenodd;stroke:none"
           d="M 0,6.1035e-5 H 960 V 540.00006 H 0 Z" /></g></g><g
       id="g26"><g
         clip-path="url(#clipPath32)"
         id="g28"><text
           id="text36"
           style="font-variant:normal;font-weight:normal;font-size:63.98400116px;font-family:Play;-inkscape-font-specification:Play-Regular;writing-mode:lr-tb;fill:#000000;fill-opacity:1;fill-rule:nonzero;stroke:none"
           transform="matrix(1,0,0,-1,111.46,373.94)"><tspan
             id="tspan34"
             y="0"
             x="0 43.061234 85.290672 100.58285 156.12096 200.01398 240.89977 283.961 326.19043 372.83478 388.38287 432.27591 470.02646 516.67078 558.90027 614.43835 631.77802 668.31287 705.1037">GA MORGAN DYNAMICS </tspan></text>
</g></g><g
       id="g38"><g
         clip-path="url(#clipPath44)"
         id="g40"><text
           id="text48"
           style="font-variant:normal;font-weight:bold;font-size:24px;font-family:'Speak Pro';-inkscape-font-specification:'Speak Pro Bold';writing-mode:lr-tb;fill:#ff0000;fill-opacity:1;fill-rule:nonzero;stroke:none"
           transform="matrix(1,0,0,-1,121.22,338.16)"><tspan
             id="tspan46"
             y="0"
             x="0 20.256001 43.751999 65.447998 90.264 106.32 131.976 156.672 174.64799 190.82401 208.44 229.896 251.832 276.168 300.98401 325.67999 351.336 371.23199 396.888 421.82401 443.39999 461.496 477.672 495.28799 516.98401 542.64001 563.37598 587.95203 609.40802 625.46399 651.12 675.81598">FASHION | TECHNOLOGY | SOLUTIONS</tspan></text>
</g></g></g></svg>