<?xml version="1.0" encoding="UTF-8"?>
<svg xmlns="http://www.w3.org/2000/svg" id="outline" viewBox="0 0 512 512" width="512" height="512">
<path style="fill: red;" d="M168.0001,144h16V128h-16a24,24,0,1,0-48,0v32H113.941A41.9882,41.9882,0,0,0,72.0001,201.94092v69.23486l-39.832,191.19238A8.00311,8.00311,0,0,0,32.0001,464v24a7.99977,7.99977,0,0,0,8,8h64a7.99977,7.99977,0,0,0,8-8v-8a7.99877,7.99877,0,0,0-2.34326-5.65674L89.22227,453.9082l34.687-98.28125L136.0001,464.44287V488a7.99977,7.99977,0,0,0,8,8h64a7.99977,7.99977,0,0,0,8-8v-8a7.99927,7.99927,0,0,0-3.2002-6.3999L184.0001,452V323.49963l20.03076,11.44617A7.99956,7.99956,0,0,0,208.0001,336h60.68652l29.65674,29.65674A7.99877,7.99877,0,0,0,304.0001,368h64v40h-40a8.0001,8.0001,0,0,0-6.85986,3.88428L299.4708,448H248.0001a7.99977,7.99977,0,0,0-8,8v32a7.99977,7.99977,0,0,0,8,8h224a7.99977,7.99977,0,0,0,8-8V304a8.00038,8.00038,0,0,0-1.75293-4.99756L448.0001,261.1936V80a7.99977,7.99977,0,0,0-8-8h-80V24a7.99977,7.99977,0,0,0-8-8h-136a7.99977,7.99977,0,0,0-8,8V80c0,.02393.00342.04688.0036.0708.00085.10193.01062.20386.01544.30591.00891.19141.01966.38183.04181.56933.01154.09717.02918.19361.04437.29065.03064.19666.066.39148.11066.58313.00934.04.01288.08057.02289.12061l7.76123,31.04492V152a7.99583,7.99583,0,0,0,.84473,3.57764l8,16A7.99924,7.99924,0,0,0,232.0001,176h16v40h16V176h16a7.99924,7.99924,0,0,0,7.15527-4.42236l8-16A7.99583,7.99583,0,0,0,296.0001,152V112.98535l2.51617-10.0647,14.32856,28.657A7.99924,7.99924,0,0,0,320.0001,136h48v88h-16a8.00072,8.00072,0,0,0-6.85986,3.88379L323.4705,264H312.0001a32.036,32.036,0,0,0-32-32H251.9127l-43.98926-56.55762A39.7416,39.7416,0,0,0,176.34922,160H168.0001Zm-24-24a8.00917,8.00917,0,0,1,8,8h-16A8.00917,8.00917,0,0,1,144.0001,120Zm10.34326,125.65674A7.99877,7.99877,0,0,0,160.0001,248h32a16.01833,16.01833,0,0,1,16,16H149.255a23.84457,23.84457,0,0,1-16.9707-7.0293L127.31358,252l16.68652-16.68652ZM116.68662,264H88.0001V235.31348ZM92.68613,480H48.0001v-9.44153l29.37079-5.87414Zm101.98047,0H152.0001v-9.75366l22.24652-5.56165Zm-26.6665-30.24634-17.05975,4.26489L135.95127,319.1167a8.00009,8.00009,0,0,0-15.49512-1.7793L73.97025,449.04749,50.3007,453.78137,86.50541,280H144.0001v16a7.99917,7.99917,0,0,0,4.03076,6.9458l19.96924,11.411ZM307.31406,352l-16.00024-16H368.0001v16Zm76.686-220.00024,48-36V256h-48ZM332.5294,424h78.9414l14.4,24H318.12937Zm131.4707,56h-208V464h208Zm0-32H444.5294L422.86,411.88428A8.0001,8.0001,0,0,0,416.0001,408h-32V272h52.15478l27.84522,34.80615Zm-240-416h120V72h-120Zm57.7539,72H230.24619l-4-16H285.754Zm-1.7539,46.11133L275.05576,160H236.94443l-4.94433-9.88867V120h48ZM324.94443,120,308.94425,88H416.0004l-42.66662,32Zm31.585,120h11.4707v24H342.12962Zm11.4707,40v40H210.12461L160.0001,291.35742V280Zm-120-32h32a16.01833,16.01833,0,0,1,16,16H235.67979l-21.26606-24.81055,14.41315-10.80981,12.85828,16.532A8,8,0,0,0,248.0001,248Zm-71.65088-72a23.84363,23.84363,0,0,1,18.94434,9.26562l23.709,30.48279-15.02332,11.26746-13.9049-16.22241A8.00031,8.00031,0,0,0,176.0001,216v16H163.31358l-29.65674-29.65674-11.31348,11.31348L132.68662,224,116.0001,240.68652,95.59775,220.28418A25.94129,25.94129,0,0,1,113.941,176h8.29315l3.64679,10.94043a19.09924,19.09924,0,0,0,36.23828,0L165.766,176Zm-37.432-.54688a23.89506,23.89506,0,0,0,10.1659,0l-2.14258,6.42774a3.09958,3.09958,0,0,1-5.88086,0ZM144.0001,160a8.00917,8.00917,0,0,1-8-8v-8h16v8A8.00917,8.00917,0,0,1,144.0001,160Z"/></svg>
