<?xml version="1.0" encoding="iso-8859-1"?>
<!-- Generator: Adobe Illustrator 19.0.0, SVG Export Plug-In . SVG Version: 6.00 Build 0)  -->
<svg version="1.1" id="Capa_1" xmlns="http://www.w3.org/2000/svg" xmlns:xlink="http://www.w3.org/1999/xlink" x="0px" y="0px"
	 viewBox="0 0 512 512" style="enable-background:new 0 0 512 512;" xml:space="preserve">
<g>
	<g>
		<g>
			<path style="fill: red;" d="M512,238.933c0-9.426-7.641-17.067-17.067-17.067v-102.4c0-9.426-7.641-17.067-17.067-17.067H384
				c-0.119,0-0.213,0.06-0.324,0.068c-0.971,0.012-1.933,0.194-2.842,0.538l-0.154,0.06l-37.137,14.865
				c-6.503,2.566-10.767,8.856-10.743,15.846v2.756h-42.667c-4.713,0-8.533,3.82-8.533,8.533s3.82,8.533,8.533,8.533H332.8v2.756
				c-0.023,6.988,4.237,13.276,10.735,15.846l31.932,12.774v36.89h-85.333c0-4.713-3.82-8.533-8.533-8.533h-17.067v-51.2
				c0-4.713-3.82-8.533-8.533-8.533h-51.2c-4.713,0-8.533,3.82-8.533,8.533v51.2H179.2c-4.713,0-8.533,3.82-8.533,8.533h-59.733
				v-25.6H128c4.713,0,8.533-3.82,8.533-8.533H153.6c9.426,0,17.067-7.641,17.067-17.067v-51.2c0-9.426-7.641-17.067-17.067-17.067
				h-17.067c0-4.713-3.82-8.533-8.533-8.533H17.067C7.641,93.867,0,101.508,0,110.933V281.6c0,0.205,0.102,0.384,0.119,0.589
				c0.017,0.205-0.068,0.35-0.043,0.538l16.085,120.585c1.125,8.482,8.357,14.82,16.913,14.822h60.792
				c9.426,0,17.067-7.641,17.067-17.067h264.533c0,9.426,7.641,17.067,17.067,17.067h86.391c8.553-0.002,15.784-6.335,16.913-14.814
				l16.085-120.593c0-0.188-0.051-0.358-0.043-0.538S512,281.805,512,281.6V238.933z M136.533,119.467H153.6v51.2h-17.067V119.467z
				 M392.533,179.2v-59.733h85.333v102.4h-85.333V179.2z M349.867,156.348v-22.562l25.6-10.24v43.042L349.867,156.348z
				 M213.333,170.667h34.133v42.667h-34.133V170.667z M187.733,230.4H204.8h68.267v51.2h-85.333V230.4z M170.667,238.933v34.133
				h-59.733v-34.133H170.667z M93.867,401.067H33.075L18.287,290.133h75.58V401.067z M42.667,179.2c-4.713,0-8.533,3.82-8.533,8.533
				s3.82,8.533,8.533,8.533h51.2v76.8h-76.8V110.933h102.4V179.2H42.667z M375.467,384H110.933v-51.2h264.533V384z M375.467,315.733
				H110.933v-25.6h59.733c0,4.713,3.82,8.533,8.533,8.533h102.4c4.713,0,8.533-3.821,8.533-8.533h85.333V315.733z M478.933,401.067
				h-86.4V290.133h101.18L478.933,401.067z M494.933,273.067h-204.8v-34.133H384h110.933V273.067z"/>
			<path style="fill: red;" d="M187.733,366.933h162.133c4.713,0,8.533-3.82,8.533-8.533s-3.82-8.533-8.533-8.533H187.733
				c-4.713,0-8.533,3.821-8.533,8.533S183.021,366.933,187.733,366.933z"/>
			<path style="fill: red;" d="M136.533,366.933H153.6c4.713,0,8.533-3.82,8.533-8.533s-3.821-8.533-8.533-8.533h-17.067
				c-4.713,0-8.533,3.821-8.533,8.533S131.82,366.933,136.533,366.933z"/>
			<path style="fill: red;" d="M247.467,247.467h-34.133c-4.713,0-8.533,3.82-8.533,8.533c0,4.713,3.821,8.533,8.533,8.533h34.133
				c4.713,0,8.533-3.82,8.533-8.533C256,251.287,252.18,247.467,247.467,247.467z"/>
		</g>
	</g>
</g>
<g>
</g>
<g>
</g>
<g>
</g>
<g>
</g>
<g>
</g>
<g>
</g>
<g>
</g>
<g>
</g>
<g>
</g>
<g>
</g>
<g>
</g>
<g>
</g>
<g>
</g>
<g>
</g>
<g>
</g>
</svg>
