<svg id="Layer_1" data-name="Layer 1" xmlns="http://www.w3.org/2000/svg" viewBox="0 0 296.76 177.57"><defs>
<style>
	.cls-1
	{
		fill:#ed1a3b;
	}
</style>
</defs>
<path class="cls-1" d="M290.73,223.87,134.69,265l55.91,15.83L294.89,242,225,290.68l47.28,13.41,100.84-43.22-63.9,53.67,66.4,18.93,50.68-78.85a28,28,0,0,0,3.26-5.75l-.13.18c-2.44,3.81-5.73,6-9,5.52l-.1,0h0l-49.08-11.62-59.83,19.79,28.95-27.1Zm130.64-2L296.5,195.61l-.8-.07c-4-.06-8.35,5-9.44,12.11a22.32,22.32,0,0,0-.27,3.4c0,6.09,2.72,10.75,6.28,11.26h.06l123.49,29.06c-1.87-2.59-2.95-6.5-2.92-11,0,0,0,0,0,0s0-.17,0-.26c0-.55,0-1.11.07-1.68s.09-.87.15-1.31.05-.57.1-.87l0-.15h0v0c.13-.76.28-1.5.46-2.23l.09-.35c1.42-5.47,4.29-9.76,7.57-11.58" transform="translate(-134.69 -195.54)"/>
<path class="cls-1" d="M426.34,238.29c-.47,3-2.23,5.29-3.93,5s-2.69-2.94-2.22-6,2.24-5.28,3.94-5,2.69,2.94,2.21,6m-.85-14.64c-4.35-.68-8.86,5.11-10.08,12.94s1.31,14.72,5.66,15.4,8.86-5.12,10.08-12.94-1.31-14.72-5.66-15.4" transform="translate(-134.69 -195.54)"/><path class="cls-1" d="M384.67,360.15a4.54,4.54,0,0,1,1.39-1,18.24,18.24,0,0,1,2.62-1.07v4a3.92,3.92,0,0,1-2.63,1.2,1.82,1.82,0,0,1-1.3-.5,1.77,1.77,0,0,1-.53-1.33,1.88,1.88,0,0,1,.45-1.27M380.76,352v3.58a7.81,7.81,0,0,1,2.49-1.86,6.46,6.46,0,0,1,2.74-.64c1.8,0,2.69.75,2.69,2.23v.7l-3.23.94a9.93,9.93,0,0,0-4.09,2,4.11,4.11,0,0,0-1.17,3.1,3.51,3.51,0,0,0,1.18,2.64,4,4,0,0,0,2.82,1.1,7.92,7.92,0,0,0,4.59-1.62,2,2,0,0,0,.8,1.27,3.16,3.16,0,0,0,1.65.35,7.4,7.4,0,0,0,3.83-1.28v-2.3a3.61,3.61,0,0,1-.88.57,2.17,2.17,0,0,1-.82.26c-.47,0-.7-.29-.7-.86v-7.42a4.2,4.2,0,0,0-1.54-3.46,7,7,0,0,0-4.47-1.25,9.22,9.22,0,0,0-5.89,2m-14.09.24a7.79,7.79,0,0,0-2.25,5.83,7.26,7.26,0,0,0,2.3,5.6,8.51,8.51,0,0,0,6,2.1,12.74,12.74,0,0,0,4.85-.95v-3.23a11.34,11.34,0,0,1-4.15,1.07,4.7,4.7,0,0,1-3.48-1.3,4.7,4.7,0,0,1,3.33-8.14,8,8,0,0,1,4,1.23v-3.39a11,11,0,0,0-4.78-1,8,8,0,0,0-5.82,2.21m-10.23,13.24h4V350.32h-4Zm.42-21.51a2.15,2.15,0,0,0-.68,1.6,2.18,2.18,0,0,0,.67,1.58,2.15,2.15,0,0,0,1.58.69,2.11,2.11,0,0,0,1.6-.69,2.21,2.21,0,0,0,.66-1.58A2.18,2.18,0,0,0,360,344a2.25,2.25,0,0,0-3.17,0m-12.94,6.62a7.25,7.25,0,0,0-2.26,1.86v-2.12h-4v15.15h4V355.4a8,8,0,0,1,1.78-1.81,3,3,0,0,1,1.74-.55,2.36,2.36,0,0,1,1.92.86,3.57,3.57,0,0,1,.71,2.34v9.23h4v-9.64a6,6,0,0,0-1.45-4.21,5,5,0,0,0-3.89-1.6,5.78,5.78,0,0,0-2.52.56m-20.79,1.65a7.78,7.78,0,0,0-2.24,5.83,7.25,7.25,0,0,0,2.29,5.6,8.52,8.52,0,0,0,6,2.1,12.7,12.7,0,0,0,4.85-.95v-3.23a11.29,11.29,0,0,1-4.15,1.07,4.7,4.7,0,0,1-3.48-1.3,4.7,4.7,0,0,1,3.33-8.14,8.09,8.09,0,0,1,4,1.23v-3.39a11,11,0,0,0-4.79-1,8,8,0,0,0-5.82,2.21m-15.91,4a4.44,4.44,0,0,1,1.16-2.63,3.35,3.35,0,0,1,2.43-.89,3,3,0,0,1,2.32.93,4.36,4.36,0,0,1,1,2.59Zm-2.05-4.06a7.85,7.85,0,0,0-2.1,5.65,7.55,7.55,0,0,0,2.27,5.75,8.19,8.19,0,0,0,5.86,2.15,10.88,10.88,0,0,0,6.46-1.88v-3a12.09,12.09,0,0,1-2.74,1.5,7.79,7.79,0,0,1-2.75.5,5.2,5.2,0,0,1-3.5-1.1,4.65,4.65,0,0,1-1.51-3.12h10.72v-.6a8.5,8.5,0,0,0-1.94-5.92,6.79,6.79,0,0,0-5.29-2.15,7.25,7.25,0,0,0-5.48,2.19m-21.62-9.41v3.43h8.05v19.24H296V346.23h8V342.8Zm-11.22,7.78a7.28,7.28,0,0,0-2.27,1.86v-2.12h-4v15.15h4V355.4a8,8,0,0,1,1.79-1.81,3,3,0,0,1,1.73-.55,2.38,2.38,0,0,1,1.93.86,3.57,3.57,0,0,1,.7,2.34v9.23h4v-9.64a6.07,6.07,0,0,0-1.45-4.21,5,5,0,0,0-3.89-1.6,5.74,5.74,0,0,0-2.52.56m-19.51,9.57a4.6,4.6,0,0,1,1.4-1,17.76,17.76,0,0,1,2.62-1.07v4a4,4,0,0,1-2.63,1.2,1.84,1.84,0,0,1-1.31-.5,1.77,1.77,0,0,1-.53-1.33,1.88,1.88,0,0,1,.45-1.27m-3.9-8.16v3.58a7.67,7.67,0,0,1,2.48-1.86,6.49,6.49,0,0,1,2.74-.64c1.8,0,2.7.75,2.7,2.23v.7l-3.23.94a9.86,9.86,0,0,0-4.09,2,4.11,4.11,0,0,0-1.17,3.1,3.48,3.48,0,0,0,1.18,2.64,3.93,3.93,0,0,0,2.81,1.1,7.88,7.88,0,0,0,4.59-1.62,2,2,0,0,0,.81,1.27,3.1,3.1,0,0,0,1.64.35,7.4,7.4,0,0,0,3.83-1.28v-2.3a3.43,3.43,0,0,1-.88.57,2.08,2.08,0,0,1-.82.26c-.46,0-.7-.29-.7-.86v-7.42a4.18,4.18,0,0,0-1.54-3.46,7,7,0,0,0-4.46-1.25,9.2,9.2,0,0,0-5.89,2M235.6,367a4.78,4.78,0,0,1,2.51-.58,8,8,0,0,1,3.19.51,1.64,1.64,0,0,1,1.13,1.52,1.69,1.69,0,0,1-1,1.47,5.7,5.7,0,0,1-2.75.56q-4.06,0-4.06-2a1.68,1.68,0,0,1,1-1.45m.81-13.15a3,3,0,0,1,4-.06,2.41,2.41,0,0,1,.82,1.87,2.86,2.86,0,0,1-.79,2.07,2.7,2.7,0,0,1-2,.82,2.85,2.85,0,0,1-2-.79,2.6,2.6,0,0,1-.83-2,2.65,2.65,0,0,1,.83-1.94m2.17-3.54a7.42,7.42,0,0,0-4.83,1.5,4.81,4.81,0,0,0-1.85,3.95,4.39,4.39,0,0,0,1,2.92,5.52,5.52,0,0,0,2.82,1.74v.06c-1.73.4-2.6,1.13-2.6,2.19,0,.81.57,1.47,1.72,2q-4,1.1-4,4A3.66,3.66,0,0,0,233,371.9a10.87,10.87,0,0,0,5.55,1.22,10.28,10.28,0,0,0,5.64-1.29,4.19,4.19,0,0,0,2-3.7,3.51,3.51,0,0,0-1.62-3,12.33,12.33,0,0,0-5-1.68,10.67,10.67,0,0,1-2-.49q-.63-.24-.63-.72a.83.83,0,0,1,.52-.77,7.66,7.66,0,0,1,2.08-.44,6.62,6.62,0,0,0,4.12-1.71,4.84,4.84,0,0,0,1.37-3.32,3.86,3.86,0,0,0-.26-1.42,5.26,5.26,0,0,0-.88-1.44h2.6v-2.82Zm-14.49.69a10.3,10.3,0,0,0-2.19,3.17h-.07v-3.86h-4v15.15h4v-6.91a5.23,5.23,0,0,1,.55-2.27,4.9,4.9,0,0,1,1.44-1.83,3,3,0,0,1,1.83-.69,5.32,5.32,0,0,1,2.79,1.3l1.43-3.49a8.72,8.72,0,0,0-1.8-1.2,3.63,3.63,0,0,0-1.56-.36,3.55,3.55,0,0,0-2.42,1m-21.44,3.3a3.71,3.71,0,0,1,3-1.33,4,4,0,0,1,3.06,1.25,5.18,5.18,0,0,1,1.12,3.57,5.48,5.48,0,0,1-1.12,3.71,3.8,3.8,0,0,1-3.06,1.3,3.65,3.65,0,0,1-3-1.35,5.58,5.58,0,0,1-1.11-3.63,5.28,5.28,0,0,1,1.13-3.52m-1.26-3.3a7.3,7.3,0,0,0-3,2.75,7.78,7.78,0,0,0-1.07,4.07,8.1,8.1,0,0,0,1,4.12,7.08,7.08,0,0,0,3,2.79,9.19,9.19,0,0,0,4.33,1,9.29,9.29,0,0,0,4.34-1,7.1,7.1,0,0,0,3-2.79,8.19,8.19,0,0,0,1-4.12,7.83,7.83,0,0,0-1-4,7.24,7.24,0,0,0-3-2.78,9.29,9.29,0,0,0-4.3-1,9.09,9.09,0,0,0-4.25,1m-31.17-8.21v22.67h4.38V349.55h.13l6.55,8h.62l6.56-8h.13v15.92H193V342.8h-3.91l-7.45,8.94-7.45-8.94Z" transform="translate(-134.69 -195.54)"/><path class="cls-1" d="M397.5,345.23h.83l1.39,2.3h1l-1.5-2.36a1.39,1.39,0,0,0,1.4-1.47c0-1.09-.66-1.55-2-1.55h-2v5.38h.88Zm0-.75V342.9h1.07c.52,0,1.17.07,1.17.73s-.59.85-1.25.85Zm5.72.27a4.77,4.77,0,1,0-4.76,4.86,4.72,4.72,0,0,0,4.76-4.86m-1,0a3.74,3.74,0,1,1-3.72-4,3.77,3.77,0,0,1,3.72,4" transform="translate(-134.69 -195.54)"/></svg>